<svg width="512" height="512" viewBox="0 0 512 512" fill="none" xmlns="http://www.w3.org/2000/svg">
<path d="M256 352C309.02 352 352 309.02 352 256V96C352 42.98 309.02 0 256 0C202.98 0 160 42.98 160 96V256C160 309.02 202.98 352 256 352ZM416 192H400C391.16 192 384 199.16 384 208V256C384 330.8 319.51 390.82 243.21 383.38C176.71 376.89 128 317.11 128 250.3V208C128 199.16 120.84 192 112 192H96C87.16 192 80 199.16 80 208V248.16C80 337.8 143.97 417.71 232 429.85V464H176C167.16 464 160 471.16 160 480V496C160 504.84 167.16 512 176 512H336C344.84 512 352 504.84 352 496V480C352 471.16 344.84 464 336 464H280V430.23C365.71 418.47 432 344.9 432 256V208C432 199.16 424.84 192 416 192Z" fill="black"/>
</svg>
